<?xml version="1.0" encoding="UTF-8"?>
<svg version="1.1" xmlns="http://www.w3.org/2000/svg" width="500" height="500">
<path d="M0 0 C1.07169434 -0.00788544 1.07169434 -0.00788544 2.16503906 -0.01593018 C4.51650129 -0.02908711 6.8672814 -0.02040783 9.21875 -0.01025391 C10.85872527 -0.01227589 12.49869967 -0.01518837 14.13867188 -0.01895142 C17.57170187 -0.02336892 21.00449732 -0.01696232 24.4375 -0.00292969 C28.83250601 0.014162 33.22696238 0.00431772 37.62194824 -0.01364708 C41.0072034 -0.02450051 44.39232877 -0.02103145 47.77758789 -0.0132637 C49.3978685 -0.011266 51.01816099 -0.01370586 52.63842773 -0.02070236 C54.90510152 -0.02834271 57.17089182 -0.01667751 59.4375 0 C60.72591797 0.00238678 62.01433594 0.00477356 63.34179688 0.00723267 C66.95195632 0.41449138 68.84607495 1.20618023 71.71875 3.38818359 C73.39238989 6.73546337 73.35145454 9.78860777 72.71875 13.38818359 C70.909404 17.67848031 68.57483443 21.62781476 66.21875 25.63818359 C65.53690393 26.82721525 64.85667817 28.01717737 64.17797852 29.20800781 C62.7570841 31.6944954 61.32645963 34.17497309 59.88720703 36.65087891 C57.79057238 40.25867022 55.71785043 43.87968845 53.65234375 47.50537109 C51.65128875 51.01628117 49.64966031 54.52681815 47.6394043 58.0324707 C42.63635519 66.75799178 37.70361712 75.52118078 32.79882812 84.30224609 C27.34284427 94.06951479 21.83913152 103.8093856 16.32763672 113.54541016 C14.1657698 117.36525514 12.00613945 121.18636216 9.84667969 125.00756836 C8.76024145 126.93001659 7.67365258 128.8523797 6.58691406 130.7746582 C3.91397142 135.50275581 1.24247986 140.23166099 -1.42578125 144.96240234 C-6.98698021 154.81819266 -12.57403547 164.65849457 -18.19720459 174.47906494 C-24.83533741 186.07249629 -31.39920368 197.70540267 -37.9140625 209.36865234 C-41.20609423 215.26030635 -44.52115995 221.13872027 -47.84375 227.01318359 C-48.36767334 227.9408252 -48.89159668 228.8684668 -49.43139648 229.82421875 C-52.25684883 234.82359715 -55.09566009 239.81494572 -57.94921875 244.79833984 C-58.54855225 245.84876465 -59.14788574 246.89918945 -59.76538086 247.98144531 C-60.9171718 249.99966712 -62.07275884 252.01572865 -63.23266602 254.02929688 C-63.74885498 254.93534668 -64.26504395 255.84139648 -64.796875 256.77490234 C-65.25352539 257.57114014 -65.71017578 258.36737793 -66.18066406 259.18774414 C-67.71172163 262.15562006 -67.71172163 262.15562006 -68.28125 265.38818359 C-67.29133145 267.77471832 -66.25829136 269.89966004 -65.01171875 272.14599609 C-64.66026794 272.80152969 -64.30881714 273.45706329 -63.94671631 274.13246155 C-62.79904947 276.26590402 -61.63426591 278.3894478 -60.46875 280.51318359 C-59.67100059 281.98703189 -58.87420995 283.46139953 -58.07836914 284.9362793 C-55.82891113 289.09588774 -53.55842883 293.24370134 -51.28125 297.38818359 C-50.77529297 298.31131348 -50.26933594 299.23444336 -49.74804688 300.18554688 C-47.41669679 304.42936072 -45.05484199 308.65549187 -42.68505859 312.87792969 C-39.61364313 318.3701547 -36.57306719 323.87952849 -33.53125 329.38818359 C-33.18929596 330.00725586 -32.84734192 330.62632812 -32.49502563 331.26416016 C-26.97896203 341.25552064 -21.54660379 351.28933879 -16.15161133 361.34667969 C-12.50503084 368.13780176 -8.8027584 374.89364652 -5.03979492 381.62084961 C-0.9699416 388.91069711 2.99375386 396.25745482 6.9465332 403.61132812 C9.40697374 408.17667757 11.88533359 412.72053401 14.51171875 417.19287109 C14.9305835 417.91071777 15.34944824 418.62856445 15.78100586 419.36816406 C16.5394712 420.6581008 17.3087993 421.94175222 18.09204102 423.21679688 C20.72550415 427.70512305 21.45180704 431.27355646 21.71875 436.38818359 C20.46092016 439.60263763 19.60445566 440.93775639 16.52497864 442.50382996 C13.20606798 443.54974998 10.42462965 443.64937217 6.9440918 443.6628418 C5.95277756 443.67050819 5.95277756 443.67050819 4.94143677 443.67832947 C2.76685405 443.69217539 0.59259019 443.69127211 -1.58203125 443.68896484 C-3.10271826 443.69285539 -4.6234042 443.6971908 -6.14408875 443.70195007 C-9.32908654 443.70940217 -12.51397348 443.709129 -15.69897461 443.70385742 C-19.76409771 443.6980733 -23.82876363 443.71497276 -27.89381123 443.7382021 C-31.03468951 443.75299615 -34.17545924 443.75380331 -37.3163662 443.75069237 C-38.81415904 443.75120304 -40.31195838 443.75639269 -41.80971718 443.76650429 C-58.6235019 443.86606609 -58.6235019 443.86606609 -65.30810547 438.87475586 C-70.31777899 432.95112157 -73.81297746 426.29374097 -77.32983398 419.42675781 C-79.17895142 415.81743493 -81.06449488 412.22715229 -82.9453125 408.63427734 C-83.50517853 407.56135941 -83.50517853 407.56135941 -84.07635498 406.46676636 C-87.18172137 400.53147515 -90.44139676 394.69477449 -93.78125 388.88818359 C-99.77121364 378.43393918 -105.41631119 367.81037379 -111.04589844 357.15966797 C-111.76621922 355.79700772 -112.48659617 354.43437716 -113.20703125 353.07177734 C-113.55812958 352.40769867 -113.90922791 351.74362 -114.27096558 351.05941772 C-118.24273243 343.55675119 -122.31324053 336.10903088 -126.39453125 328.66552734 C-128.42746248 324.95718759 -130.44358823 321.2402661 -132.44921875 317.51708984 C-138.44882073 306.38164881 -144.53234845 295.30360033 -150.79272461 284.31225586 C-151.79042347 282.55997594 -152.78268631 280.80458786 -153.76904297 279.04589844 C-154.8390107 277.16542238 -155.94026487 275.30258798 -157.06298828 273.453125 C-157.63130371 272.48938965 -158.19961914 271.5256543 -158.78515625 270.53271484 C-159.31052979 269.66622314 -159.83590332 268.79973145 -160.37719727 267.90698242 C-161.28125 265.38818359 -161.28125 265.38818359 -160.62597656 262.91577148 C-159.96033691 261.66461548 -159.96033691 261.66461548 -159.28125 260.38818359 C-158.82000732 259.50340332 -158.35876465 258.61862305 -157.88354492 257.70703125 C-157.34834229 256.74845215 -156.81313965 255.78987305 -156.26171875 254.80224609 C-155.65827637 253.7184668 -155.05483398 252.6346875 -154.43310547 251.51806641 C-153.77843415 250.34970834 -153.12364608 249.18141569 -152.46875 248.01318359 C-151.79034071 246.79811851 -151.11212056 245.5829478 -150.43408203 244.36767578 C-144.61821115 233.95316134 -138.75283746 223.56653872 -132.86962891 213.18994141 C-130.19149871 208.46596013 -127.51701493 203.7399195 -124.84375 199.01318359 C-124.31064209 198.07071777 -123.77753418 197.12825195 -123.22827148 196.15722656 C-119.20453108 189.03732572 -115.20870248 181.90206111 -111.21875 174.76318359 C-106.46566725 166.2600041 -101.66401175 157.78685323 -96.81787109 149.33642578 C-92.34686021 141.52877348 -87.95148845 133.67966292 -83.5625 125.82568359 C-79.12594328 117.88863486 -74.65848272 109.96957115 -70.17822266 102.05712891 C-66.16913773 94.97169981 -62.19010385 87.8698168 -58.21875 80.76318359 C-53.46940791 72.2665584 -48.67213585 63.79957662 -43.82885742 55.35620117 C-39.8518214 48.41241125 -35.93585781 41.43541406 -32.03125 34.45068359 C-31.43707275 33.39010742 -30.84289551 32.32953125 -30.23071289 31.23681641 C-27.73837172 26.78782852 -25.24971138 22.33740892 -22.79296875 17.86865234 C-22.10170148 16.6250855 -21.4103093 15.38158806 -20.71875 14.13818359 C-20.16058594 13.12240234 -19.60242188 12.10662109 -19.02734375 11.06005859 C-14.12133154 3.55287212 -8.95554755 0.01659005 0 0 Z " fill="#5271FF" transform="translate(375.28125,39.61181640625)"/>
<path d="M0 0 C0.68969879 -0.0065712 1.37939758 -0.0131424 2.08999634 -0.01991272 C4.37819527 -0.03966047 6.66632836 -0.05131469 8.95458984 -0.0612793 C9.73711498 -0.06535482 10.51964012 -0.06943035 11.32587814 -0.07362938 C15.47180671 -0.09450153 19.61770211 -0.10879536 23.76367188 -0.11816406 C28.0340839 -0.12920003 32.30397075 -0.16356349 36.57419777 -0.20333576 C39.86690191 -0.22956754 43.15948253 -0.23786193 46.45228195 -0.24144554 C48.02546083 -0.24629864 49.59863466 -0.25787609 51.17171097 -0.27648354 C68.35465766 -0.46701651 68.35465766 -0.46701651 75.17333984 5.94848633 C75.58326172 6.54983398 75.99318359 7.15118164 76.41552734 7.77075195 C76.89376953 8.46942383 77.37201172 9.1680957 77.86474609 9.88793945 C80.47552152 14.07948575 82.91031262 18.35096169 85.29052734 22.67700195 C86.43486381 24.72992038 87.58074747 26.781977 88.72802734 28.83325195 C89.31455078 29.88254883 89.90107422 30.9318457 90.50537109 32.01293945 C93.37624434 37.10135811 96.33302628 42.13860215 99.29052734 47.17700195 C104.05514636 55.31217243 108.76883487 63.47384325 113.41552734 71.67700195 C113.94791016 72.61415039 114.48029297 73.55129883 115.02880859 74.5168457 C116.0170834 76.26728617 116.98863945 78.02730807 117.94042969 79.79785156 C119.21911227 82.17246451 119.21911227 82.17246451 120.78515625 84.15185547 C122.26532054 86.28052818 122.9829809 87.5916718 123.29052734 90.17700195 C121.68767912 94.8852169 119.06384587 98.93736397 116.41552734 103.11450195 C115.66092024 104.3568684 114.90982359 105.60137332 114.16210938 106.84790039 C112.62907894 109.39926151 111.08267258 111.94172584 109.52685547 114.47924805 C106.24218588 119.86965924 103.21121203 125.39924215 100.16552734 130.92700195 C95.68009017 138.98645475 91.09224052 146.97718347 86.41552734 154.92700195 C81.52139398 163.25027806 76.78083346 171.64537223 72.13543701 180.10894775 C71.11144693 181.97416552 70.08540014 183.83823562 69.05859375 185.7019043 C68.72666016 186.30442017 68.39472656 186.90693604 68.05273438 187.52770996 C67.39523814 188.72101873 66.73768679 189.91429713 66.08007812 191.10754395 C64.59615889 193.80130313 63.11602489 196.49698348 61.64355469 199.19702148 C60.20740037 201.82393166 58.75215363 204.43920414 57.29052734 207.05200195 C56.69655151 208.15572144 56.69655151 208.15572144 56.09057617 209.28173828 C52.82442362 215.04924931 48.30451309 220.17000908 42.29052734 223.17700195 C39.97896728 223.2897915 37.6640968 223.3364128 35.34985352 223.35400391 C34.6358287 223.3605751 33.92180389 223.3671463 33.18614197 223.37391663 C30.81859231 223.39365837 28.45110612 223.40531428 26.08349609 223.4152832 C25.27516138 223.41935873 24.46682667 223.42343426 23.63399696 223.42763329 C19.3553658 223.44849805 15.07676675 223.46279783 10.7980957 223.47216797 C6.37942509 223.48323165 1.96125818 223.51762948 -2.45723438 223.55733967 C-5.85533075 223.58349015 -9.25330684 223.5918584 -12.65149498 223.59544945 C-14.28018278 223.60031972 -15.90886506 223.61194635 -17.53745461 223.63048744 C-19.81891354 223.65484608 -22.09906597 223.65392056 -24.38061523 223.64697266 C-26.32681511 223.65577202 -26.32681511 223.65577202 -28.31233215 223.66474915 C-32.2969133 223.09265969 -33.93738074 222.05333523 -36.70947266 219.17700195 C-38.21764777 213.93775907 -37.67952339 210.98116923 -35.14697266 206.23950195 C-34.68810669 205.36938477 -34.68810669 205.36938477 -34.2199707 204.48168945 C-30.41314902 197.39120317 -26.26355287 190.48023913 -22.17797852 183.54833984 C-18.22165533 176.8253498 -14.40716014 170.04529155 -10.70947266 163.17700195 C-6.03852918 154.51250292 -1.14246989 146.00231444 3.85107422 137.52026367 C9.10006193 128.57470385 14.14427183 119.5238625 19.14135742 110.43603516 C19.7268335 109.37344482 20.31230957 108.31085449 20.91552734 107.21606445 C21.75470703 105.6870752 21.75470703 105.6870752 22.61083984 104.12719727 C24.70051682 100.45689834 26.97550031 96.92012117 29.32177734 93.40893555 C30.59132435 90.48398627 30.28078731 89.18693497 29.29052734 86.17700195 C28.34759482 84.25370381 27.32682407 82.3677133 26.25537109 80.51293945 C25.61873535 79.40418457 24.98209961 78.29542969 24.32617188 77.15307617 C23.62700148 75.95259512 22.92761433 74.75224028 22.22802734 73.55200195 C21.50735265 72.30373218 20.78714504 71.05519262 20.06738281 69.80639648 C15.08485648 61.18126953 10.00642426 52.61343707 4.91552734 44.05200195 C2.96748554 40.76673899 1.02094429 37.48060345 -0.92333984 34.19311523 C-2.07141449 32.25444463 -3.22283231 30.31774783 -4.37841797 28.38354492 C-5.8397154 25.92865685 -7.27803763 23.46188534 -8.70947266 20.98950195 C-9.12503418 20.30162598 -9.5405957 19.61375 -9.96875 18.9050293 C-12.69935181 14.11183724 -13.26237153 10.69422685 -12.70947266 5.17700195 C-8.93456033 0.26961593 -5.97369357 0.04702616 0 0 Z " fill="#38B6FF" transform="translate(108.70947265625,126.822998046875)"/>
</svg>
